<svg width="203" height="40" viewBox="0 0 203 40" fill="none" xmlns="http://www.w3.org/2000/svg">
<g clip-path="url(#clip0_57_117)">
<path d="M18.2939 29.9493C17.3402 30.8663 16.2196 31.5959 14.9969 32.1077C13.6522 32.6718 12.195 32.9723 10.7148 32.9723C7.75645 32.9723 5.0775 31.8204 3.13863 29.9589C1.19976 28.0973 0 25.5271 0 22.6858C0 19.8445 1.1988 17.2752 3.13863 15.4137C5.0775 13.5531 7.7574 12.4021 10.7158 12.4021C12.1835 12.4021 13.6332 12.6998 14.9769 13.2591H14.9855C16.2282 13.7785 17.3698 14.5224 18.3387 15.465L21.1111 18.1266L17.9401 21.1695L15.078 18.4233L15.0847 18.4167C14.5334 17.8983 13.8935 17.4845 13.1973 17.1944L13.1992 17.1915C12.4363 16.8747 11.5922 16.7054 10.7158 16.7054C8.99531 16.7054 7.43791 17.376 6.31064 18.4576C5.18336 19.5391 4.48621 21.0354 4.48621 22.6858C4.48621 24.3362 5.18336 25.8334 6.31064 26.914C7.43791 27.9955 8.99531 28.6652 10.7158 28.6652C11.5932 28.6652 12.442 28.493 13.2116 28.1706C13.9174 27.8757 14.5716 27.4495 15.1305 26.9111H15.1286L15.2487 26.7941L15.2907 26.7513H15.2926L26.8343 15.6733C27.8462 14.6318 29.0631 13.8147 30.3954 13.2591H30.404C31.7487 12.6998 33.1974 12.4021 34.6661 12.4021C37.6235 12.4021 40.3024 13.5531 42.2423 15.4137C44.1811 17.2752 45.3809 19.8473 45.3809 22.6858C45.3809 25.5242 44.1821 28.0964 42.2423 29.9579C40.3034 31.8195 37.6245 32.9714 34.6661 32.9714C33.1859 32.9714 31.7287 32.6708 30.383 32.1067C29.0974 31.5683 27.9244 30.7893 26.9401 29.8048H26.9382L24.2812 27.2564L27.4523 24.2135L30.1093 26.7627L30.1055 26.7675C30.6958 27.3744 31.4006 27.849 32.1693 28.1706C32.9389 28.494 33.7887 28.6652 34.6661 28.6652C36.3856 28.6652 37.9439 27.9946 39.0712 26.914C40.1975 25.8324 40.8956 24.3381 40.8956 22.6858C40.8956 21.0335 40.1985 19.5382 39.0712 18.4576C37.9439 17.376 36.3856 16.7054 34.6661 16.7054C33.7887 16.7054 32.9437 16.8747 32.1817 17.1915L32.1836 17.1944C31.4082 17.5178 30.7015 17.9924 30.1112 18.5993L29.9376 18.4433L30.1141 18.6126L18.3015 29.9532L18.2958 29.9484H18.2939V29.9493ZM22.6895 0C25.9626 0 28.9277 1.27369 31.0725 3.33405C33.0324 5.21462 34.3094 7.75249 34.5163 10.5738C33.3109 10.5871 32.1159 10.7707 30.9638 11.1103C30.6586 11.1997 30.3573 11.3006 30.0597 11.4128V11.3805C30.0597 9.42665 29.2347 7.65737 27.9015 6.37797C26.5682 5.09857 24.7256 4.3062 22.6895 4.3062C20.6533 4.3062 18.8108 5.09857 17.4775 6.37797C16.1442 7.65737 15.3193 9.4276 15.3193 11.3805V11.4147C14.9702 11.2825 14.6136 11.1655 14.2531 11.0647C13.1487 10.7546 12.009 10.5871 10.8636 10.5738C11.0696 7.75249 12.3466 5.21557 14.3065 3.33405C16.4513 1.27369 19.4164 0 22.6895 0Z" fill="url(#paint0_linear_57_117)"/>
<path d="M56.3037 29.1802C53.8669 26.8164 52.6653 23.7867 52.6653 20.0912C52.6653 16.3957 53.9003 13.2995 56.3704 10.9024C58.8739 8.47198 61.878 7.27344 65.4163 7.27344C69.8557 7.27344 73.8613 9.3376 76.031 12.4338L72.9267 15.3969C70.9239 12.8999 68.4872 11.6681 65.6165 11.6681C63.3134 11.6681 61.344 12.4671 59.7417 14.0652C58.1729 15.6632 57.3718 17.6608 57.3718 20.0912C57.3718 22.5216 58.1395 24.4193 59.7084 25.9841C61.2772 27.5488 63.2466 28.3146 65.5832 28.3146C68.6207 28.3146 71.0908 27.0827 73.0268 24.5857L76.1979 27.4489C73.8947 30.5452 69.8891 32.6759 65.3495 32.6759C61.7779 32.6759 58.7404 31.5107 56.3037 29.1802Z" fill="#000C43"/>
<path d="M81.7702 32.3095H77.4309V7.00781H81.7702V32.3095Z" fill="#000C43"/>
<path d="M86.2433 16.5294C88.0792 14.6983 90.3824 13.7661 93.2196 13.7661C96.0569 13.7661 98.3601 14.6983 100.163 16.5294C101.998 18.3605 102.9 20.5912 102.9 23.2546C102.9 25.918 101.998 28.2152 100.163 30.0463C98.3601 31.8775 96.0569 32.7764 93.2196 32.7764C90.3824 32.7764 88.0792 31.8775 86.2433 30.0463C84.4408 28.2152 83.5396 25.9513 83.5396 23.2546C83.5396 20.5579 84.4408 18.3605 86.2433 16.5294ZM96.9915 19.3926C95.9567 18.3272 94.7217 17.7946 93.2196 17.7946C91.7175 17.7946 90.4825 18.3272 89.4477 19.3926C88.413 20.458 87.9123 21.7564 87.9123 23.2546C87.9123 24.7528 88.413 26.0845 89.4477 27.1499C90.4825 28.2152 91.7175 28.7479 93.2196 28.7479C94.7217 28.7479 95.9567 28.2152 96.9915 27.1499C98.0263 26.0845 98.527 24.7861 98.527 23.2546C98.527 21.7231 98.0263 20.458 96.9915 19.3926Z" fill="#000C43"/>
<path d="M104.401 24.752V14.2314H108.773V24.752C108.773 27.1824 110.209 28.7804 112.579 28.7804C114.949 28.7804 116.417 27.1824 116.417 24.752V14.2314H120.79V24.752C120.79 29.7792 117.686 32.7423 112.579 32.7423C107.472 32.7423 104.401 29.7792 104.401 24.752Z" fill="#000C43"/>
<path d="M137.011 7.00781H141.351V32.3095H137.112V29.9457C135.61 31.8101 133.674 32.7423 131.337 32.7423C128.767 32.7423 126.597 31.8434 124.895 30.0456C123.192 28.2144 122.324 25.9505 122.324 23.2538C122.324 20.5571 123.192 18.3597 124.895 16.5286C126.63 14.6975 128.767 13.7986 131.304 13.7986C133.607 13.7986 135.509 14.6975 137.011 16.5286V7.00781ZM135.776 27.1833C136.744 26.1179 137.245 24.8195 137.245 23.2548C137.245 21.69 136.744 20.4249 135.743 19.3595C134.775 18.2941 133.507 17.7614 131.938 17.7614C130.369 17.7614 129.101 18.2941 128.133 19.3595C127.164 20.4249 126.664 21.7233 126.664 23.2548C126.664 24.7862 127.164 26.1179 128.133 27.1833C129.101 28.2487 130.369 28.7814 131.938 28.7814C133.507 28.7814 134.808 28.2487 135.776 27.1833Z" fill="#000C43"/>
<path d="M160.777 16.5621C162.479 18.3932 163.314 20.6239 163.314 23.254C163.314 25.8842 162.446 28.1814 160.743 30.0125C159.041 31.8436 156.905 32.7425 154.334 32.7425C152.031 32.7425 150.062 31.8436 148.493 30.0458V39.734H144.12V14.2316H148.46V16.6287C150.029 14.731 151.998 13.7988 154.368 13.7988C156.938 13.7988 159.074 14.731 160.777 16.5621ZM149.862 27.2159C150.83 28.2479 152.098 28.7806 153.667 28.7806C155.236 28.7806 156.504 28.2479 157.472 27.2159C158.44 26.1505 158.941 24.8521 158.941 23.2873C158.941 21.7225 158.44 20.4241 157.472 19.392C156.504 18.3267 155.236 17.794 153.667 17.794C152.098 17.794 150.83 18.3267 149.862 19.392C148.894 20.4574 148.393 21.7558 148.393 23.2873C148.393 24.8188 148.894 26.1505 149.862 27.2159Z" fill="#000C43"/>
<path d="M179.001 14.2316H183.14V32.3097H179.001V30.0791C177.432 31.8436 175.463 32.7425 173.093 32.7425C170.489 32.7425 168.353 31.8436 166.651 30.0125C164.948 28.1814 164.114 25.8842 164.114 23.1874C164.114 20.4907 164.948 18.2268 166.651 16.4623C168.353 14.6977 170.523 13.7988 173.093 13.7988C175.396 13.7988 177.365 14.6977 179.001 16.5288V14.2316ZM177.599 19.3587C176.598 18.2934 175.329 17.7607 173.76 17.7607C172.192 17.7607 170.923 18.2934 169.922 19.3587C168.954 20.4241 168.453 21.7225 168.453 23.254C168.453 24.7855 168.954 26.1172 169.922 27.1826C170.923 28.248 172.192 28.7806 173.76 28.7806C175.329 28.7806 176.598 28.248 177.599 27.1826C178.6 26.1172 179.101 24.8188 179.101 23.254C179.101 21.6892 178.6 20.4241 177.599 19.3587Z" fill="#000C43"/>
<path d="M198.26 14.2314H203L195.657 33.4747C193.921 37.9027 191.718 40.0002 188.28 40.0002C186.911 40.0002 185.776 39.7005 184.942 39.1345L185.643 35.4723C186.477 35.8718 187.245 36.0716 187.946 36.0716C189.381 36.0716 190.583 35.1061 191.484 33.1418L191.918 32.143L184.007 14.2314H189.047L193.954 26.4499L198.26 14.2314Z" fill="#000C43"/>
</g>
<defs>
<linearGradient id="paint0_linear_57_117" x1="-0.986125" y1="35.6481" x2="46.1127" y2="4.88198" gradientUnits="userSpaceOnUse">
<stop offset="0.14" stop-color="#00A4FD"/>
<stop offset="0.22" stop-color="#0E9AFC"/>
<stop offset="0.37" stop-color="#3482FC"/>
<stop offset="0.58" stop-color="#715AFC"/>
<stop offset="0.83" stop-color="#C425FC"/>
<stop offset="1" stop-color="#FF00FC"/>
</linearGradient>
<clipPath id="clip0_57_117">
<rect width="203" height="40" fill="white"/>
</clipPath>
</defs>
</svg>
