<svg width="16" height="16" viewBox="0 0 16 16" fill="none" xmlns="http://www.w3.org/2000/svg">
<path d="M11.168 2.66666L11.1999 2.66666C11.9466 2.66666 12.3203 2.66666 12.6055 2.81198C12.8564 2.93981 13.0602 3.14364 13.188 3.39452C13.3333 3.67974 13.3333 4.05338 13.3333 4.80012L13.3333 11.2001C13.3333 11.9469 13.3333 12.3197 13.188 12.6049C13.0602 12.8558 12.8564 13.0603 12.6055 13.1881C12.3205 13.3333 11.9473 13.3333 11.2021 13.3333L4.79762 13.3333C4.05235 13.3333 3.67969 13.3333 3.39475 13.1881C3.14387 13.0603 2.93969 12.8558 2.81186 12.6049C2.66668 12.32 2.66668 11.9473 2.66668 11.202L2.66668 4.79793C2.66668 4.05265 2.66668 3.67946 2.81186 3.39452C2.93969 3.14364 3.14407 2.93981 3.39495 2.81198C3.68017 2.66666 4.05327 2.66666 4.80001 2.66666L4.83334 2.66666" stroke="#0066FF" stroke-width="1.5" stroke-linecap="round" stroke-linejoin="round"/>
<path d="M10 4.66667L8 2.66667M8 2.66667L6 4.66667M8 2.66667V10" stroke="#0066FF" stroke-width="1.5" stroke-linecap="round" stroke-linejoin="round"/>
</svg>
